{"title":"Hyde &amp; Seek - S01E02","uid":16004963,"size":985373957,"categoryP":"video","categoryS":"tv_shows","magnet":"?xt=urn:btih:5b0a92c48fdaf722c40d224a4ef2817314b99140&amp;dn=Hyde+%26amp%3B+Seek+-+S01E02&amp;tr=udp%3A%2F%2Ftracker.leechers-paradise.org%3A6969&amp;tr=udp%3A%2F%2Fzer0day.ch%3A1337&amp;tr=udp%3A%2F%2Fopen.demonii.com%3A1337&amp;tr=udp%3A%2F%2Ftracker.coppersurfer.tk%3A6969&amp;tr=udp%3A%2F%2Fexodus.desync.com%3A6969","seeders":6,"leechers":0,"uploader":"Bullrout","files":1,"time":1476167026,"description":"Hyde &amp; Seek - S01E02\r\n\r\nGary and Claire travel to Hong Kong in the hunt for Nick's killer, and uncover a terrorist network operating inside Australia.\r\n\r\nComplete name : Hyde &amp; Seek - S01E02.mkv\r\nFormat : Matroska\r\nFormat version : Version 4 / Version 2\r\nFile size : 940 MiB\r\nDuration : 39 min 47 s\r\nOverall bit rate mode : Variable\r\nOverall bit rate : 3 302 kb/s\r\nEncoded date : UTC 2016-10-11 02:49:33\r\nWriting application : mkvmerge v9.4.2 ('So High') 64bit\r\nWriting library : libebml v1.3.4 + libmatroska v1.4.5\r\n\r\nVideo\r\nID : 2\r\nFormat : AVC\r\nFormat/Info : Advanced Video Codec\r\nFormat profile :   \r\nFormat settings, CABAC : Yes\r\nFormat settings, ReFrames : 3 frames\r\nCodec ID : V_MPEG4/ISO/AVC\r\nDuration : 39 min 47 s\r\nBit rate mode : Variable\r\nBit rate : 2 916 kb/s\r\nMaximum bit rate : 3 000 kb/s\r\nWidth : 1 280 pixels\r\nHeight : 720 pixels\r\nDisplay aspect ratio : 16:9\r\nFrame rate mode : Constant\r\nFrame rate : 25.000 FPS\r\nStandard : PAL\r\nColor space : YUV\r\nChroma subsampling : 4:2:0\r\nBit depth : 8 bits\r\nScan type : Progressive\r\nBits/(Pixel*Frame) : 0.127\r\nStream size : 830 MiB (88%)\r\nWriting library : x264 core 112\r\nDefault : Yes\r\nForced : No\r\nColor range : Limited\r\nColor primaries : BT.709\r\nTransfer characteristics : BT.709\r\nMatrix coefficients : BT.709\r\n\r\nAudio\r\nID : 1\r\nFormat : AC-3\r\nFormat/Info : Audio Coding 3\r\nMode extension : CM (complete main)\r\nFormat settings, Endianness : Big\r\nCodec ID : A_AC3\r\nDuration : 39 min 47 s\r\nBit rate mode : Constant\r\nBit rate : 384 kb/s\r\nChannel(s) : 6 channels\r\nChannel positions : Front: L C R, Side: L R, LFE\r\nSampling rate : 48.0 kHz\r\nFrame rate : 31.250 FPS (1536 spf)\r\nCompression mode : Lossy\r\nStream size : 109 MiB (12%)\r\nDefault : Yes\r\nForced : No","torrent":{"xt":"urn:btih:5b0a92c48fdaf722c40d224a4ef2817314b99140","amp;dn":"Hyde+%26amp%3B+Seek+-+S01E02","amp;tr":["udp%3A%2F%2Ftracker.leechers-paradise.org%3A6969","udp%3A%2F%2Fzer0day.ch%3A1337","udp%3A%2F%2Fopen.demonii.com%3A1337","udp%3A%2F%2Ftracker.coppersurfer.tk%3A6969","udp%3A%2F%2Fexodus.desync.com%3A6969"],"infoHash":"5b0a92c48fdaf722c40d224a4ef2817314b99140","infoHashBuffer":{"type":"Buffer","data":[91,10,146,196,143,218,247,34,196,13,34,74,78,242,129,115,20,185,145,64]},"announce":[],"urlList":[]}}